<?xml version="1.0" encoding="utf-8"?><svg viewBox="0 0 384 512" xmlns="http://www.w3.org/2000/svg" xmlns:xlink="http://www.w3.org/1999/xlink"><style>:root>svg{display:none}:root>svg:target{display:block}</style><svg viewBox="0 0 19 32" id="angle-left" xmlns="http://www.w3.org/2000/svg"><path d="M17.716 1.284 3 16l14.716 14.716" stroke-width="2.943"/></svg><svg viewBox="0 0 21 13" id="arrow-bottom" xmlns="http://www.w3.org/2000/svg"><path d="m1.3 1.5 9 9 9-9" stroke-width="3"/></svg><svg viewBox="0 0 14 22" id="arrow-right" xmlns="http://www.w3.org/2000/svg"><path d="m2 20 9-9-9-9" stroke-width="3"/></svg><svg viewBox="0 0 17 12" id="envelope" xmlns="http://www.w3.org/2000/svg"><path d="M1.905 1.815a103.08 103.08 0 0 1-.827-.613c-.484-.361.276-.75.612-.827.116-.026.307-.04.573-.04l12.96-.001c.39 0 .717.113.979.339.257.22.224.38-.036.57-2.332 1.711-4.673 3.415-6.973 5.159-.313.237-.663.322-1.01.059C6.112 4.89 4.007 3.355 1.905 1.815Z"/><path d="M16.597 3.317v7.232c-.074.681-.61 1.117-1.41 1.117H2.057c-.773 0-1.29-.476-1.358-1.12V3.313a.283.283 0 0 1 .158-.224c.186-.096.322-.024.48.092C3.45 4.73 5.664 6.34 7.645 7.848c.208.159.425.289.695.342.452.09.86-.002 1.221-.274 2.256-1.697 4.313-3.204 6.48-4.793.223-.164.516-.05.557.194Z"/></svg><svg viewBox="0 0 384 512" id="location-dot" xmlns="http://www.w3.org/2000/svg"><!--!Font Awesome Free 6.5.2 by @fontawesome - https://fontawesome.com License - https://fontawesome.com/license/free Copyright 2024 Fonticons, Inc.--><path d="M215.7 499.2C267 435 384 279.4 384 192 384 86 298 0 192 0S0 86 0 192c0 87.4 117 243 168.3 307.2 12.3 15.3 35.1 15.3 47.4 0zM192 128a64 64 0 1 1 0 128 64 64 0 1 1 0-128z"/></svg><svg viewBox="0 0 36 46" id="mouse" xmlns="http://www.w3.org/2000/svg"><rect x="1.302" y="1.302" width="33.337" height="43.235" rx="12.762" fill-opacity=".48" stroke-width="2.604"/><path stroke-width="4.167" stroke-linecap="round" d="M18.231 24.482v7.293"/></svg><svg viewBox="0 0 14 15" id="phone" xmlns="http://www.w3.org/2000/svg"><path d="M2.251.95h.102c.295.024.456.14.678.362l2.064 2.064c.11.11.183.197.221.263a.887.887 0 0 1-.151 1.067c-.259.263-.62.569-.795.85a1.3 1.3 0 0 0-.164 1.004c.047.214.17.424.284.619a8.981 8.981 0 0 0 3.475 3.39c.472.26.966.298 1.432.008.284-.178.577-.527.834-.783.329-.327.898-.384 1.238-.044l2.17 2.17c.22.22.336.38.361.673v.102a.873.873 0 0 1-.215.523c-.118.132-.336.36-.654.682-.217.22-.346.348-.388.385-.508.447-1.142.64-1.815.665h-.225c-1.638-.089-3.245-.93-4.555-1.867a18.387 18.387 0 0 1-4.301-4.309C.918 7.473.107 5.904 0 4.284v-.307C.032 3.33.228 2.67.683 2.191c.397-.418.793-.792 1.042-1.02A.873.873 0 0 1 2.251.95Z"/></svg><svg viewBox="0 0 33 28" id="telegram" xmlns="http://www.w3.org/2000/svg"><path fill-rule="evenodd" clip-rule="evenodd" d="M2.307 12.52c8.838-3.875 14.746-6.38 17.723-7.609C28.444 1.414 30.193.8 31.326.752c.236 0 .804.047 1.182.33.283.237.378.568.425.804.047.237.095.756.047 1.182-.472 4.773-2.41 16.447-3.45 21.788-.425 2.268-1.276 3.025-2.08 3.12-1.748.14-3.119-1.182-4.82-2.27-2.647-1.748-4.16-2.835-6.759-4.537-2.977-1.985-1.04-3.072.662-4.82.425-.473 8.224-7.515 8.366-8.177 0-.094.047-.378-.142-.52-.19-.142-.426-.094-.615-.047-.283.047-4.537 2.883-12.808 8.46-1.229.85-2.316 1.229-3.308 1.229-1.087 0-3.167-.615-4.726-1.134-1.89-.615-3.403-.946-3.261-1.986.094-.52.85-1.087 2.268-1.654Z"/></svg><svg xml:space="preserve" viewBox="0 0 256 256" id="whatsapp" xmlns="http://www.w3.org/2000/svg"><g><path d="M76.735 13.079C68.315 4.649 57.117.005 45.187 0 20.605 0 .599 20.005.589 44.594A44.521 44.521 0 0 0 6.542 66.89L.215 90l23.642-6.202a44.552 44.552 0 0 0 21.312 5.428h.018c.001 0-.001 0 0 0 24.579 0 44.587-20.007 44.597-44.597.005-11.916-4.629-23.12-13.049-31.55zM27.076 46.217c-.557-.744-4.55-6.042-4.55-11.527 0-5.485 2.879-8.181 3.9-9.296C27.447 24.279 28.655 24 29.398 24s1.487.007 2.136.039c.684.035 1.603-.26 2.507 1.913.929 2.231 3.157 7.717 3.436 8.274.279.558.464 1.208.093 1.952-.371.743-.557 1.208-1.114 1.859s-1.17 1.453-1.672 1.952c-.558.556-1.139 1.159-.489 2.274.65 1.116 2.886 4.765 6.199 7.72 4.256 3.797 7.847 4.973 8.961 5.531 1.114.558 1.764.465 2.414-.279.65-.744 2.786-3.254 3.529-4.369.743-1.115 1.486-.929 2.507-.558 1.022.372 6.5 3.068 7.614 3.625 1.114.558 1.857.837 2.136 1.302.279.465.279 2.696-.65 5.299s-5.381 4.979-7.522 5.298c-1.92.287-4.349.407-7.019-.442a63.992 63.992 0 0 1-6.353-2.347c-11.177-4.827-18.477-16.082-19.035-16.826z" transform="matrix(2.81 0 0 2.81 1.407 1.407)"/></g></svg></svg>